PathFileType	4	(X/Y/Z)	C:/Users/beibeiliu/ov580/test_trc/User3\sequence.13_training_dense_left.trc
DataRate	CameraRate	NumFrames	NumMarkers	Units	OrigDataRate	OrigDataStartFrame	OrigNumFrames
120	120	17	19	mm	120	35	278
Frame#	Time	ThumbCMC			ThumbMCP			ThumbIP			ThumbTip			IndexMCP			IndexPIP			IndexTip			MiddleMCP			MiddlePIP			MiddleTip			RingMCP			RingPIP			RingTip			PinkyMCP			PinkyPIP			PinkyTip			BackHand1			BackHand2			BackHand3	
		X0	Y0	Z0	X1	Y1	Z1	X2	Y2	Z2	X3	Y3	Z3	X4	Y4	Z4	X5	Y5	Z5	X6	Y6	Z6	X7	Y7	Z7	X8	Y8	Z8	X9	Y9	Z9	X10	Y10	Z10	X11	Y11	Z11	X12	Y12	Z12	X13	Y13	Z13	X14	Y14	Z14	X15	Y15	Z15	X16	Y16	Z16	X17	Y17	Z17	X18	Y18	Z18	
34	0.283333	-167.562	21.7975	21.6751	-134.352	21.6923	5.32919	-116.257	8.14828	-15.1798	-112.866	-15.6227	-28.9058	-172.239	12.6006	-52.833	-167.594	7.78773	-83.287	-165.18	4.79108	-102.622	-151.39	-14.1985	-55.4945	-122.655	-22.7741	-42.0567	-136.281	-13.8735	-5.39671	-154.422	-34.3754	-41.1267	-127.999	-34.171	-21.9819	-145.086	-22.5996	5.80406	-162.486	-51.0125	-29.1199	-137.238	-44.0783	-12.9714	-150.286	-29.0454	9.48581	-204.419	-19.2634	-14.3139	-216.298	-19.9121	17.8327	-201.412	8.05279	1.29374	
35	0.291667	-173.009	25.4727	21.3318	-141.007	25.9413	0.625428	-121.367	15.2479	-15.8747	-112.575	-7.90318	-27.1257	-176.298	12.8591	-56.4981	-169.237	11.5721	-85.8672	-164.796	5.99828	-104.71	-150.802	-15.8216	-55.3517	-120.965	-13.0942	-42.4329	-132.898	-5.22177	-5.94699	-149.856	-32.0827	-39.3626	-124.996	-27.1014	-18.6888	-141.534	-15.8086	5.58366	-150.679	-47.7228	-29.2214	-132.375	-36.2447	-10.1247	-147.531	-26.6339	11.1871	-203.207	-26.4	-17.0909	-216.129	-26.1665	14.486	-203.865	5.12311	1.51978	
36	0.3	-182.729	27.55	17.2928	-150.954	31.2109	-0.890134	-127.707	25.4437	-15.7907	-109.15	5.63442	-28.1379	-178.371	5.31901	-57.9789	-172.438	4.2773	-81.6437	-164.578	-0.496499	-105.564	-152.764	-12.1549	-54.3867	-121.725	-4.08961	-46.1462	-132.087	-1.05555	-7.74918	-148.145	-28.2712	-37.1572	-123.675	-19.2418	-21.0706	-144.701	-6.42826	7.07299	-144.905	-40.6611	-25.7398	-129.75	-26.9459	-9.72864	-148.218	-18.617	14.0467	-199.924	-34.1422	-12.7292	-213.746	-31.7407	13.3226	-207.949	-0.610401	-1.35522	
37	0.308333	-191.064	24.9637	12.2012	-160.068	35.0126	-4.27469	-135.732	33.6528	-15.8198	-113.513	17.7428	-26.2801	-178.712	1.07913	-63.0119	-171.287	0.834317	-86.1242	-162.347	-0.309628	-108.636	-152.711	-12.786	-51.8263	-122.831	0.539292	-43.5648	-135.293	5.73751	-7.86383	-144.547	-26.1418	-35.0331	-123.504	-7.49603	-16.9214	-146.739	-3.46649	9.87199	-143.81	-41.1716	-21.8983	-126.165	-22.7211	-6.60104	-143.728	-9.66059	11.669	-198.477	-33.8717	-11.174	-211.379	-39.8128	15.163	-212.068	-2.96789	-6.23753	
38	0.316667	-200.015	20.8143	9.44831	-170.046	39.9173	-4.38933	-142.701	39.7267	-18.8969	-122.877	24.0149	-22.4462	-182.052	-0.222304	-60.2388	-171.999	1.21375	-87.7702	-160.262	-5.29487	-107.939	-154.396	-7.27649	-53.2492	-125.76	7.43062	-41.4229	-143.847	10.906	-5.0483	-143.672	-18.9523	-35.5854	-124.962	-2.2655	-17.0906	-146.934	2.89254	8.03211	-140.033	-33.3533	-20.4742	-126.079	-16.0167	-4.65017	-150.839	-7.4401	16.6729	-193.879	-40.0386	-10.293	-211.152	-39.103	13.3426	-216.505	-9.22672	-8.09115	
39	0.325	-207.169	16.5173	7.2215	-181.461	34.9275	-5.02493	-151.078	40.4467	-21.7817	-126.179	25.619	-26.4326	-181.098	-4.70894	-65.2204	-173.333	-3.28751	-84.9008	-159.518	-5.96192	-109.509	-150.007	-8.68843	-51.7708	-130.032	12.523	-37.012	-147.9	13.8456	-6.05939	-145.314	-16.2588	-34.1043	-129.466	2.511	-14.0085	-154.533	3.76403	10.5564	-137.271	-28.7479	-18.1402	-130.511	-8.41184	-1.79029	-156.68	-6.80574	15.2764	-194.983	-41.7154	-12.476	-208.48	-45.3258	14.4158	-219.264	-14.3848	-7.55854	
40	0.333333	-215.301	17.3445	2.84849	-189.52	34.4812	-11.0604	-162.588	42.7105	-25.3549	-135.68	33.2464	-28.6264	-182.589	-9.28359	-65.676	-172.879	-5.60005	-87.3804	-159.388	-9.09544	-106.725	-153.003	-6.18102	-50.852	-135.57	17.2864	-38.0552	-160.534	19.0955	-6.7121	-144.343	-15.0201	-32.0098	-133.122	8.29704	-14.7874	-161.827	8.11476	7.55754	-141.078	-25.4067	-17.5698	-133.293	-3.53785	-0.359147	-160.088	-1.03797	14.9982	-188.262	-46.8001	-12.6621	-207.777	-48.7402	14.5604	-219.329	-23.794	-9.23694	
41	0.341667	-223.016	11.1351	0.291301	-200.431	31.4129	-11.0124	-170.545	43.6219	-29.1194	-145.589	33.8214	-30.1124	-186.775	-9.8785	-64.3903	-176.177	-8.37678	-85.8188	-160.554	-9.94657	-105.603	-154.425	-4.04943	-51.2119	-142.058	22.789	-37.909	-164.257	16.7044	-5.57985	-145.614	-12.9527	-31.581	-139.697	14.172	-16.6414	-165.993	11.6132	4.77647	-137.748	-21.0782	-15.2471	-138.115	3.19627	-0.734721	-165.062	-2.03824	17.2908	-188.111	-46.7269	-11.2304	-206.968	-49.4258	13.9524	-221.599	-27.3729	-9.37464	
42	0.35	-224.224	5.33872	-2.39965	-208.35	31.1032	-17.4755	-178.233	37.6968	-30.8614	-155.329	35.2087	-30.8646	-190.535	-11.9606	-66.1316	-175.419	-9.73971	-90.1449	-160.878	-9.24811	-111.934	-156.973	-1.06845	-51.8991	-146.855	24.7176	-37.109	-175.335	17.799	-7.26916	-148.359	-9.82637	-31.4014	-142.74	15.2837	-13.0022	-170.315	11.2798	4.65069	-139.798	-17.6223	-15.3937	-141.693	7.69927	-2.99631	-166.809	2.87948	13.912	-188.654	-47.9874	-9.24561	-204.916	-52.4536	16.0678	-220.714	-32.4431	-9.61828	
43	0.358333	-229.69	2.86083	-2.80055	-211.336	25.47	-18.6048	-187.952	38.7542	-31.3224	-157.556	36.4593	-33.9106	-187.657	-15.7699	-66.2396	-181.396	-11.1397	-89.3576	-166.15	-10.4916	-109.209	-160.971	-4.15998	-50.7466	-153.82	28.5046	-38.7096	-175.693	17.9823	-9.61226	-150.134	-5.65361	-34.0834	-145.558	17.5864	-18.2456	-171.937	9.53677	5.28456	-143.632	-14.2946	-19.6853	-142.53	9.03723	-6.02048	-165.316	6.639	12.1091	-188.136	-47.6014	-12.5428	-202.5	-55.9003	16.8949	-223.097	-34.181	-10.3663	
44	0.366667	-230.017	-1.89421	-0.578874	-215.518	26.8392	-20.698	-188.23	39.393	-38.0483	-163.297	33.8218	-35.5648	-193.035	-15.6192	-66.6211	-182.651	-14.0409	-89.361	-166.058	-11.6218	-112.347	-166.593	-4.28888	-53.3339	-154.651	24.9828	-43.2387	-180.235	17.5525	-11.5418	-150.715	-5.76959	-35.3641	-147.672	17.9643	-20.8298	-173.95	9.0748	2.82496	-146.268	-18.2466	-19.3864	-144.52	10.2579	-7.47323	-170.445	6.42926	8.67114	-188.863	-48.3529	-10.2519	-205.891	-53.7081	13.8949	-223.198	-36.0741	-14.4759	
45	0.375	-231.534	-1.25552	-3.78496	-215.596	24.5417	-23.4202	-192.815	35.8901	-35.001	-168.562	36.8449	-37.6184	-195.039	-17.4703	-68.8916	-184.263	-14.0341	-93.6742	-170.188	-11.931	-114.362	-166.457	-2.67417	-56.1437	-157.697	24.8364	-40.6922	-181.572	16.2487	-13.4442	-156.971	-7.21274	-39.3837	-151.265	18.1907	-24.3806	-177.982	7.83112	-0.216785	-144.783	-14.6139	-22.6316	-144.105	9.51639	-10.1376	-167.379	8.82833	7.30651	-186.755	-50.7203	-8.69501	-207.151	-56.1568	15.2275	-223.599	-37.7053	-11.6194	
46	0.383333	-233.316	-1.83837	-7.6708	-219.775	25.4199	-24.4087	-195.081	35.8102	-37.8527	-166.913	31.424	-37.4279	-197.596	-18.9511	-69.0542	-186.68	-17.3843	-91.4354	-170.205	-15.3226	-113.17	-169.62	-3.47434	-59.0594	-162.216	26.6993	-43.7987	-183.008	14.438	-15.407	-154.165	-10.2889	-37.5673	-154.001	19.1165	-25.3344	-176.068	8.31651	-0.60037	-145.537	-14.5102	-24.4758	-145.59	8.82646	-16.0832	-167.466	6.54772	4.69995	-189.824	-49.6471	-13.0625	-205.392	-55.8545	16.0923	-224.704	-37.7463	-12.8777	
47	0.391667	-235.036	-1.55821	-6.22081	-218.027	20.7419	-23.4156	-195.206	37.2184	-42.2661	-168.605	36.1732	-42.129	-197.211	-20.2795	-72.3321	-189.471	-16.5796	-92.573	-175.434	-15.2387	-116.371	-171.04	-6.89482	-57.7437	-160.654	23.8439	-45.6877	-185.935	13.449	-16.1963	-155.128	-6.59982	-39.662	-155.803	18.1353	-25.9124	-179.213	7.01096	-1.53999	-149.65	-16.6879	-24.4109	-148.597	9.27878	-13.5003	-172.092	3.21125	5.04566	-190.249	-49.5521	-9.66438	-206.187	-56.3968	11.528	-225.668	-39.8015	-13.5805	
48	0.4	-235.861	-4.60915	-3.5593	-219.929	19.3897	-23.1453	-197.725	35.8542	-43.1655	-169.902	30.6914	-42.1648	-198.803	-21.8188	-70.8961	-187.203	-19.912	-93.5302	-174.617	-17.75	-115.358	-170.226	-7.53196	-57.135	-165.736	25.2029	-46.5785	-189.793	11.4505	-17.1314	-160.858	-9.3569	-40.0415	-155.288	16.5577	-22.0736	-184.132	5.6958	-5.27192	-146.597	-14.4631	-24.8432	-152.172	10.4068	-13.3099	-171.759	4.18857	4.157	-189.16	-52.3816	-10.0416	-203.239	-56.6504	12.0615	-222.698	-42.7546	-10.558	
49	0.408333	-236.229	-2.34077	-7.8236	-220.706	18.0185	-24.2242	-198.329	31.9634	-42.0645	-170.19	31.3117	-45.6316	-197.802	-22.5104	-72.6986	-187.752	-19.0482	-96.5867	-176.68	-16.9049	-116.435	-171.009	-6.67418	-59.0073	-163.969	22.3269	-46.1201	-185.849	7.70859	-14.4038	-158.028	-9.72464	-40.343	-158.276	16.8535	-23.0922	-180.885	4.85122	-1.63651	-152.922	-20.2033	-24.7623	-151.995	7.75356	-16.7475	-173.067	2.18383	7.87597	-190.128	-53.0557	-13.8666	-207.001	-55.5518	12.8027	-224.515	-41.4795	-12.6388	
50	0.416667	-237.541	-3.33712	-3.02518	-220.645	19.2934	-25.9185	-198.194	31.4854	-41.174	-170.703	33.6161	-47.3656	-202.135	-20.5803	-69.5426	-186.557	-21.3246	-94.885	-178.643	-17.5122	-115.823	-171.546	-7.75725	-57.812	-163.635	21.8854	-45.8511	-184.133	10.7631	-15.6968	-160.699	-12.005	-40.6493	-156.872	15.0107	-21.496	-183.125	3.10195	-2.25893	-150.019	-16.8807	-25.0578	-149.119	6.86376	-13.1964	-173.173	3.45405	4.94679	-192.218	-53.3906	-11.8581	-205.423	-59.0164	12.8668	-224.918	-42.281	-12.897	
